{
	"asset":{
		"generator":"Khronos glTF Blender I/O v3.6.27",
		"version":"2.0"
	},
	"scene":0,
	"scenes":[
		{
			"name":"Scene",
			"nodes":[
				0
			]
		}
	],
	"nodes":[
		{
			"mesh":0,
			"name":"Cylinder"
		}
	],
	"materials":[
		{
			"alphaMode":"BLEND",
			"doubleSided":true,
			"emissiveFactor":[
				0.021155674010515213,
				0.02890268713235855,
				0.028064250946044922
			],
			"name":"clear_plastic",
			"pbrMetallicRoughness":{
				"baseColorFactor":[
					0,
					0,
					0,
					1
				]
			}
		},
		{
			"alphaCutoff":0.5,
			"alphaMode":"MASK",
			"emissiveFactor":[
				0.3495367765426636,
				0.709559977054596,
				0.7311699986457825
			],
			"name":"outline",
			"pbrMetallicRoughness":{
				"baseColorFactor":[
					0,
					0,
					0,
					1
				]
			}
		}
	],
	"meshes":[
		{
			"name":"Cylinder",
			"primitives":[
				{
					"attributes":{
						"POSITION":0,
						"NORMAL":1,
						"TEXCOORD_0":2
					},
					"indices":3,
					"material":0
				},
				{
					"attributes":{
						"POSITION":4,
						"NORMAL":5,
						"TEXCOORD_0":6
					},
					"indices":7,
					"material":1
				}
			]
		}
	],
	"accessors":[
		{
			"bufferView":0,
			"componentType":5126,
			"count":1036,
			"max":[
				1.0295803546905518,
				0.14303773641586304,
				1.0295803546905518
			],
			"min":[
				-1.0295803546905518,
				-0.14222215116024017,
				-1.0295803546905518
			],
			"type":"VEC3"
		},
		{
			"bufferView":1,
			"componentType":5126,
			"count":1036,
			"type":"VEC3"
		},
		{
			"bufferView":2,
			"componentType":5126,
			"count":1036,
			"type":"VEC2"
		},
		{
			"bufferView":3,
			"componentType":5123,
			"count":3060,
			"type":"SCALAR"
		},
		{
			"bufferView":4,
			"componentType":5126,
			"count":1036,
			"max":[
				1.0455365180969238,
				0.1571832001209259,
				1.0455365180969238
			],
			"min":[
				-1.0455365180969238,
				-0.15777786076068878,
				-1.0455365180969238
			],
			"type":"VEC3"
		},
		{
			"bufferView":5,
			"componentType":5126,
			"count":1036,
			"type":"VEC3"
		},
		{
			"bufferView":6,
			"componentType":5126,
			"count":1036,
			"type":"VEC2"
		},
		{
			"bufferView":7,
			"componentType":5123,
			"count":3060,
			"type":"SCALAR"
		}
	],
	"bufferViews":[
		{
			"buffer":0,
			"byteLength":12432,
			"byteOffset":0,
			"target":34962
		},
		{
			"buffer":0,
			"byteLength":12432,
			"byteOffset":12432,
			"target":34962
		},
		{
			"buffer":0,
			"byteLength":8288,
			"byteOffset":24864,
			"target":34962
		},
		{
			"buffer":0,
			"byteLength":6120,
			"byteOffset":33152,
			"target":34963
		},
		{
			"buffer":0,
			"byteLength":12432,
			"byteOffset":39272,
			"target":34962
		},
		{
			"buffer":0,
			"byteLength":12432,
			"byteOffset":51704,
			"target":34962
		},
		{
			"buffer":0,
			"byteLength":8288,
			"byteOffset":64136,
			"target":34962
		},
		{
			"buffer":0,
			"byteLength":6120,
			"byteOffset":72424,
			"target":34963
		}
	],
	"buffers":[
		{
			"byteLength":78544,
			"uri":"data:application/octet-stream;base64,"
		}
	]
}
